<?xml version="1.0" encoding="iso-8859-1"?>
<!-- Generator: Adobe Illustrator 19.0.0, SVG Export Plug-In . SVG Version: 6.00 Build 0)  -->
<svg version="1.1" id="Capa_1" xmlns="http://www.w3.org/2000/svg" xmlns:xlink="http://www.w3.org/1999/xlink" x="0px" y="0px"
	 viewBox="0 0 480 480" style="enable-background:new 0 0 480 480;" xml:space="preserve">
<g>
	<g>
		<path d="M432,430.847v-74.808c9.737-4.619,15.959-14.415,16-25.192v-36c0-8.837-7.163-16-16-16h-40V212.04
			c9.737-4.619,15.959-14.415,16-25.192v-36c0-8.837-7.163-16-16-16h-32v-40h-16v40h-80v-25.6l36.728-36.72
			c16.254-16.505,16.051-43.062-0.454-59.316c-16.325-16.077-42.531-16.079-58.858-0.004l-2.344,2.344l-2.344-2.344
			c-16.508-16.252-43.064-16.044-59.316,0.463c-16.074,16.327-16.072,42.532,0.004,58.857L216,111.087v23.76h-80v-40h-16v40H88
			c-8.837,0-16,7.163-16,16v36c0.041,10.777,6.263,20.573,16,25.192v66.808H48c-8.837,0-16,7.163-16,16v36
			c0.041,10.777,6.263,20.573,16,25.192v74.808H0v16h20l21.6,28.8c1.511,2.014,3.882,3.2,6.4,3.2h384c2.518,0,4.889-1.186,6.4-3.2
			l21.6-28.8h20v-16H432z M188.728,61.183c-10.129-10.131-10.127-26.555,0.004-36.684s26.555-10.127,36.684,0.004l8,8
			c3.124,3.123,8.188,3.123,11.312,0l8-8c4.851-4.882,11.454-7.619,18.336-7.6c14.328,0.006,25.939,11.626,25.934,25.954
			c-0.003,6.873-2.732,13.463-7.59,18.326l-50.344,50.344L188.728,61.183z M248,125.247v9.6h-16v-7.76l1.416,1.416
			c3.124,3.123,8.188,3.123,11.312,0L248,125.247z M88,150.847h304v36c0,6.627-5.373,12-12,12c-6.627,0-12-5.373-12-12h-16
			c0,6.627-5.373,12-12,12c-6.627,0-12-5.373-12-12h-16c0,6.627-5.373,12-12,12c-6.627,0-12-5.373-12-12h-16c0,6.627-5.373,12-12,12
			c-6.627,0-12-5.373-12-12h-16c0,6.627-5.373,12-12,12c-6.627,0-12-5.373-12-12h-16c0,6.627-5.373,12-12,12
			c-6.627,0-12-5.373-12-12h-16c0,6.627-5.373,12-12,12c-6.627,0-12-5.373-12-12h-16c0,6.627-5.373,12-12,12s-12-5.373-12-12
			V150.847z M376,214.439v64.408H104v-64.408c6.075-0.849,11.7-3.681,16-8.056c10.715,11.046,28.355,11.314,39.401,0.599
			c0.203-0.197,0.402-0.396,0.599-0.599c10.715,11.046,28.355,11.314,39.401,0.599c0.203-0.197,0.402-0.396,0.599-0.599
			c10.715,11.046,28.355,11.314,39.401,0.599c0.203-0.197,0.402-0.396,0.599-0.599c10.715,11.046,28.355,11.314,39.401,0.599
			c0.203-0.197,0.402-0.396,0.599-0.599c10.715,11.046,28.355,11.314,39.401,0.599c0.203-0.197,0.402-0.396,0.599-0.599
			c10.715,11.046,28.355,11.314,39.401,0.599c0.203-0.197,0.402-0.396,0.599-0.599C364.3,210.758,369.925,213.59,376,214.439z
			 M48,294.847h384v36c0,6.627-5.373,12-12,12c-6.627,0-12-5.373-12-12h-16c0,6.627-5.373,12-12,12c-6.627,0-12-5.373-12-12h-16
			c0,6.627-5.373,12-12,12c-6.627,0-12-5.373-12-12h-16c0,6.627-5.373,12-12,12c-6.627,0-12-5.373-12-12h-16c0,6.627-5.373,12-12,12
			c-6.627,0-12-5.373-12-12h-16c0,6.627-5.373,12-12,12c-6.627,0-12-5.373-12-12h-16c0,6.627-5.373,12-12,12
			c-6.627,0-12-5.373-12-12h-16c0,6.627-5.373,12-12,12c-6.627,0-12-5.373-12-12h-16c0,6.627-5.373,12-12,12s-12-5.373-12-12H72
			c0,6.627-5.373,12-12,12s-12-5.373-12-12V294.847z M416,358.439v72.408H64v-72.408c6.075-0.849,11.7-3.681,16-8.056
			c10.715,11.046,28.355,11.314,39.401,0.599c0.203-0.197,0.402-0.396,0.599-0.599c10.715,11.046,28.355,11.314,39.401,0.599
			c0.203-0.197,0.402-0.396,0.599-0.599c10.715,11.046,28.355,11.314,39.401,0.599c0.203-0.197,0.402-0.396,0.599-0.599
			c10.715,11.046,28.355,11.314,39.401,0.599c0.203-0.197,0.402-0.396,0.599-0.599c10.715,11.046,28.355,11.314,39.401,0.599
			c0.203-0.197,0.402-0.396,0.599-0.599c10.715,11.046,28.355,11.314,39.401,0.599c0.203-0.197,0.402-0.396,0.599-0.599
			c10.715,11.046,28.355,11.314,39.401,0.599c0.203-0.197,0.402-0.396,0.599-0.599c10.715,11.046,28.355,11.314,39.401,0.599
			c0.203-0.197,0.402-0.396,0.599-0.599C404.3,354.758,409.925,357.59,416,358.439z M428,462.847H52l-12-16h16h384L428,462.847z"/>
	</g>
</g>
<g>
	<g>
		<polygon points="373.656,60.503 362.344,49.191 352,59.535 341.656,49.191 330.344,60.503 340.688,70.847 330.344,81.191 
			341.656,92.503 352,82.16 362.344,92.503 373.656,81.191 363.312,70.847 		"/>
	</g>
</g>
<g>
	<g>
		<polygon points="149.656,60.503 138.344,49.191 128,59.535 117.656,49.191 106.344,60.503 116.688,70.847 106.344,81.191 
			117.656,92.503 128,82.16 138.344,92.503 149.656,81.191 139.312,70.847 		"/>
	</g>
</g>
<g>
</g>
<g>
</g>
<g>
</g>
<g>
</g>
<g>
</g>
<g>
</g>
<g>
</g>
<g>
</g>
<g>
</g>
<g>
</g>
<g>
</g>
<g>
</g>
<g>
</g>
<g>
</g>
<g>
</g>
</svg>
