<?xml version="1.0" encoding="iso-8859-1"?>
<!-- Generator: Adobe Illustrator 19.0.0, SVG Export Plug-In . SVG Version: 6.00 Build 0)  -->
<svg version="1.1" id="Capa_1" xmlns="http://www.w3.org/2000/svg" xmlns:xlink="http://www.w3.org/1999/xlink" x="0px" y="0px"
	 viewBox="0 0 480.182 480.182" style="enable-background:new 0 0 480.182 480.182;" xml:space="preserve">
<g>
	<g>
		<path d="M376.22,150.117c-21.512-9.272-44.691-14.053-68.116-14.048c-23.373-0.01-46.499,4.771-67.952,14.048
			c-12.159-5.257-24.891-9.078-37.936-11.384l39.016-32.512c2.663-2.22,3.593-5.902,2.304-9.12l-16-40
			c-1.214-3.04-4.158-5.033-7.432-5.032h-104c-3.273-0.001-6.218,1.992-7.432,5.032l-16,40c-1.289,3.218-0.359,6.9,2.304,9.12
			l40.608,33.84C42.77,160.166-16.172,251.705,3.934,344.519c20.105,92.814,111.644,151.756,204.458,131.651
			c10.858-2.352,21.462-5.751,31.665-10.149c87.234,37.601,188.433-2.635,226.034-89.87
			C503.691,288.917,463.455,187.718,376.22,150.117z M218.664,78.013l5.6,14.056h-14.032L218.664,78.013z M205.976,68.069
			l-9.872,16.456l-9.872-16.456H205.976z M171.168,74.053l10.808,18.016h-25.224L171.168,74.053z M155.456,68.069l-14.4,18.016
			l-10.824-18.016H155.456z M117.544,78.013l8.432,14.056H111.92L117.544,78.013z M122.2,108.069h91.808l-28.8,24H151L122.2,108.069
			z M172.104,464.069c-86.156-0.084-155.932-69.995-155.849-156.151S86.25,151.986,172.407,152.069
			c16.557,0.016,33.006,2.668,48.73,7.856c-6.052,3.571-11.881,7.506-17.456,11.784C128.216,154.116,52.778,201.03,35.185,276.494
			S64.506,427.396,139.97,444.989s150.902-29.321,168.495-104.785c12.666-54.33-8.058-111.001-52.785-144.343
			c5.615-2.657,11.424-4.885,17.376-6.664c65.678,55.721,73.749,154.134,18.029,219.811
			C261.44,443.951,217.928,464.087,172.104,464.069z M188.032,185.141c-67.934,66.119-69.405,174.791-3.286,242.725
			c1.016,1.044,2.044,2.074,3.086,3.091c-67.896,8.747-130.027-39.203-138.774-107.099
			c-8.747-67.896,39.203-130.027,107.098-138.774c5.288-0.681,10.615-1.021,15.947-1.016
			C177.431,184.089,182.751,184.447,188.032,185.141z M240.104,411.637c-57.199-37.426-73.228-114.135-35.802-171.334
			c9.339-14.274,21.529-26.463,35.802-35.802c57.199,37.434,73.222,114.149,35.788,171.348
			C266.555,390.116,254.371,402.3,240.104,411.637z M292.36,185.181h0.016c67.901-8.671,129.975,39.344,138.646,107.245
			s-39.344,129.975-107.245,138.646c-10.516,1.343-21.161,1.331-31.674-0.035c67.96-66.092,69.474-174.763,3.382-242.723
			C294.458,187.256,293.416,186.212,292.36,185.181z M426.951,409.132c-29.636,34.862-73.089,54.949-118.846,54.938
			c-16.66,0.031-33.216-2.622-49.032-7.856c6.062-3.576,11.899-7.52,17.48-11.808c75.497,17.608,150.974-29.32,168.582-104.817
			s-29.32-150.974-104.817-168.582s-150.974,29.32-168.582,104.816c-12.679,54.363,8.059,111.071,52.816,144.43
			c-5.624,2.669-11.444,4.905-17.408,6.688c-65.616-55.78-73.589-154.191-17.809-219.806
			c55.78-65.616,154.191-73.589,219.807-17.809C474.757,245.105,482.731,343.516,426.951,409.132z"/>
	</g>
</g>
<g>
	<g>
		<rect x="260.79" y="32.068" transform="matrix(0.7071 -0.7071 0.7071 0.7071 51.3648 204.1408)" width="22.624" height="16"/>
	</g>
</g>
<g>
	<g>
		<rect x="56.111" y="28.754" transform="matrix(0.7071 -0.7071 0.7071 0.7071 -9.5536 57.0685)" width="16" height="22.624"/>
	</g>
</g>
<g>
	<g>
		<rect x="160.104" y="0.069" width="16" height="24"/>
	</g>
</g>
<g>
</g>
<g>
</g>
<g>
</g>
<g>
</g>
<g>
</g>
<g>
</g>
<g>
</g>
<g>
</g>
<g>
</g>
<g>
</g>
<g>
</g>
<g>
</g>
<g>
</g>
<g>
</g>
<g>
</g>
</svg>
