<?xml version="1.0"?>
<svg xmlns="http://www.w3.org/2000/svg" xmlns:xlink="http://www.w3.org/1999/xlink" width="512" height="512" viewBox="0 0 128 128"><defs><linearGradient id="a" x1="115.334" y1="139.638" x2="12.666" y2="36.969" gradientUnits="userSpaceOnUse"><stop offset="0" stop-color="#fd5b6e"/><stop offset="1" stop-color="#8a87e0"/></linearGradient></defs><path d="M96.75,126.247A1.749,1.749,0,0,1,95,128H88.625a1.75,1.75,0,0,1,0-3.5H95A1.749,1.749,0,0,1,96.75,126.247ZM128,118.688v7.559a1.749,1.749,0,0,1-1.75,1.75H108.625a1.75,1.75,0,0,1,0-3.5H124.5v-4.059H3.5V124.5H75a1.75,1.75,0,0,1,0,3.5H1.75A1.749,1.749,0,0,1,0,126.247v-7.559a1.749,1.749,0,0,1,1.75-1.75H10V74.176a2.808,2.808,0,0,1-.362-.31L1.63,65.44a5.9,5.9,0,0,1,.094-8.257,6.062,6.062,0,0,1,4.292-1.745h.277A8.606,8.606,0,0,1,10.3,56.445,53.936,53.936,0,0,1,53.228,9.1a5.9,5.9,0,0,1,.8-7.357A6.068,6.068,0,0,1,58.316,0h.278A8.656,8.656,0,0,1,64,1.916,8.656,8.656,0,0,1,69.406,0h.37a5.921,5.921,0,0,1,5,9.1A53.937,53.937,0,0,1,117.7,56.445a8.606,8.606,0,0,1,4.009-1.007h.277a6.066,6.066,0,0,1,4.292,1.744,5.9,5.9,0,0,1,.094,8.258l-8.006,8.424a2.764,2.764,0,0,1-.364.312v42.762h8.25A1.749,1.749,0,0,1,128,118.688ZM117.684,60.909a1.811,1.811,0,0,1-2.766,0,5.129,5.129,0,0,0-4.024-1.971h-.37a2.414,2.414,0,0,0-1.851.86h0a2.417,2.417,0,0,0,.1,3.229l7.532,7.927,7.532-7.926a2.416,2.416,0,0,0-.041-3.382,2.549,2.549,0,0,0-1.808-.709h-.277A5.127,5.127,0,0,0,117.684,60.909ZM72.028,12.147l-2.636,2.775a63.878,63.878,0,0,0,36,43.5,5.844,5.844,0,0,1,2.746-2.473l-.807-1.995a84.02,84.02,0,0,0-6.68-13.084l-2-3.186a1.75,1.75,0,0,1,2.965-1.86l2,3.187a87.409,87.409,0,0,1,6.959,13.631l1.151,2.844a8.572,8.572,0,0,1,2.417.607A50.443,50.443,0,0,0,72.028,12.147ZM56.468,7.588l2.39,2.515,2.935,3.088,0,0L64,15.515l2.2-2.32,0,0,3.912-4.116,0,0,1.41-1.484a2.419,2.419,0,0,0,.1-3.231h0a2.415,2.415,0,0,0-1.852-.86h-.37a5.126,5.126,0,0,0-4.023,1.972,1.812,1.812,0,0,1-2.766,0A5.126,5.126,0,0,0,58.594,3.5h-.278a2.544,2.544,0,0,0-1.807.711A2.414,2.414,0,0,0,56.468,7.588Zm-42.607,48.5a8.572,8.572,0,0,1,2.417-.607l1.151-2.844a87.409,87.409,0,0,1,6.959-13.631l2-3.187a1.75,1.75,0,0,1,2.965,1.86l-2,3.186A84.1,84.1,0,0,0,20.673,53.95l-.807,1.995A5.922,5.922,0,0,1,22,57.543a6.069,6.069,0,0,1,.619.89,63.728,63.728,0,0,0,15.451-9.8,1.75,1.75,0,1,1,2.281,2.654,67.168,67.168,0,0,1-17,10.649,5.88,5.88,0,0,1-1.581,3.5l-1.795,1.889a64.132,64.132,0,0,1,25.734,49.609H82.292a64.13,64.13,0,0,1,25.735-49.609l-1.8-1.889a5.887,5.887,0,0,1-1.581-3.5,67.4,67.4,0,0,1-38.1-44.028l-.486.511a2.846,2.846,0,0,1-4.125,0l-.483-.509A66.873,66.873,0,0,1,51.4,39.174a1.75,1.75,0,1,1-2.853-2.027,63.407,63.407,0,0,0,10.06-22.225l-2.636-2.775A50.443,50.443,0,0,0,13.861,56.089ZM11.7,70.955l7.532-7.926a2.418,2.418,0,0,0,.1-3.23h0a2.414,2.414,0,0,0-1.851-.86h-.371a5.128,5.128,0,0,0-4.023,1.971c-.013.016-.03.027-.043.043L13,60.993a1.81,1.81,0,0,1-2.682-.084,5.128,5.128,0,0,0-4.023-1.971H6.016a2.543,2.543,0,0,0-1.808.71,2.414,2.414,0,0,0-.041,3.38Zm30.51,45.983A60.61,60.61,0,0,0,17.527,69.9l-3.764,3.961a2.813,2.813,0,0,1-.263.225v42.849H33.75V113.6a26.2,26.2,0,0,0-3.723-13.46L26.366,94.03a1.75,1.75,0,0,1,3-1.8l3.661,6.114A29.7,29.7,0,0,1,37.25,113.6v3.334Zm72.291,0V74.089a2.746,2.746,0,0,1-.261-.223L110.473,69.9a60.61,60.61,0,0,0-24.682,47.035H90.75V113.6a29.7,29.7,0,0,1,4.221-15.259l3.661-6.114a1.75,1.75,0,0,1,3,1.8l-3.661,6.114A26.2,26.2,0,0,0,94.25,113.6v3.334Z" fill="url(#a)"/></svg>
