<?xml version="1.0"?>
<svg xmlns="http://www.w3.org/2000/svg" xmlns:xlink="http://www.w3.org/1999/xlink" id="Gradient" viewBox="0 0 512 512" width="512" height="512"><defs><linearGradient id="linear-gradient" x1="256" y1="496" x2="256" y2="16" gradientUnits="userSpaceOnUse"><stop offset="0" stop-color="#12c2e9"/><stop offset="0.5" stop-color="#c471ed"/><stop offset="1" stop-color="#f64f59"/></linearGradient></defs><path d="M176,392a8,8,0,1,1-8-8A8,8,0,0,1,176,392Zm168-8a8,8,0,1,0,8,8A8,8,0,0,0,344,384ZM64,456V424a8,8,0,0,1,8-8H96V328a40.045,40.045,0,0,1,40-40h8V232a40.068,40.068,0,0,1,32-39.195V152a40.045,40.045,0,0,1,40-40h18.663L195.518,76.659a33.528,33.528,0,0,1,0-50.583,40.675,40.675,0,0,1,53.6,0L256,32.292l6.886-6.217a40.677,40.677,0,0,1,53.6,0h0a33.528,33.528,0,0,1,0,50.583L277.338,112H296a40.045,40.045,0,0,1,40,40v40.805A40.068,40.068,0,0,1,368,232v56h8a40.045,40.045,0,0,1,40,40v88h24a8,8,0,0,1,8,8v32a8,8,0,0,1-8,8H323.006C331.2,479.225,335.95,480,336,480a8,8,0,0,1,.362,15.992h-.084a.179.179,0,0,1-.033,0l-.048,0c-.064,0-.13,0-.2,0H176c-.066,0-.132,0-.2,0l-.048,0a.182.182,0,0,1-.033,0h-.032a.13.13,0,0,0-.027,0h-.025A8,8,0,0,1,176,480c.05,0,4.8-.775,12.994-16H72A8,8,0,0,1,64,456ZM206.24,64.783,256,109.708l49.76-44.925a17.543,17.543,0,0,0,0-26.834,24.692,24.692,0,0,0-32.152,0L261.361,49.008a8,8,0,0,1-10.722,0L238.392,37.951a24.689,24.689,0,0,0-32.152,0,17.542,17.542,0,0,0,0,26.832ZM305.114,464H206.886a126.123,126.123,0,0,1-8.8,16H313.912A126.123,126.123,0,0,1,305.114,464ZM320,192V175.246c-7.344-1.19-18.476-4.238-28-12.054-15.416,12.652-35.06,12.817-36,12.817s-20.584-.165-36-12.817c-9.524,7.816-20.656,10.864-28,12.054V192ZM192,152v6.966c6.484-1.385,15.551-4.608,21.886-12.116a8,8,0,0,1,12.228,0c10.8,12.8,29.7,13.159,29.886,13.159.158,0,19.036-.3,29.886-13.159a8,8,0,0,1,12.228,0c6.315,7.485,15.393,10.712,21.886,12.105V152a24.027,24.027,0,0,0-24-24H216A24.027,24.027,0,0,0,192,152Zm-32,80v15.475c10.057-1.049,27.4-4.2,38.926-13.66a8,8,0,0,1,10.148,0C226.049,247.744,255.629,248,256.005,248s29.946-.256,46.921-14.185a8,8,0,0,1,10.148,0c11.53,9.461,28.866,12.61,38.926,13.659V232a24.028,24.028,0,0,0-24-24H184A24.028,24.028,0,0,0,160,232Zm0,56H352V263.565c-10.457-.951-29.136-3.984-44-13.671C286.623,263.826,257.335,264,256,264s-30.623-.174-52-14.106c-14.864,9.687-33.543,12.72-44,13.671Zm-48,40v23.43c12.067-1.347,35.129-5.873,50.343-21.087a8,8,0,0,1,11.314,0c21.3,21.3,57.988,21.656,58.356,21.657H280c.355,0,37.046-.36,58.343-21.657a8,8,0,0,1,11.314,0c15.212,15.212,38.27,19.739,50.343,21.086V328a24.027,24.027,0,0,0-24-24H136A24.027,24.027,0,0,0,112,328Zm0,88H400V367.541c-12.464-1.186-36.977-5.452-56-20.805-26.025,21-62.354,21.264-64,21.264H232c-1.646,0-37.975-.259-64-21.264-19.023,15.353-43.536,19.619-56,20.805ZM80,448H432V432H80Zm176-64a8,8,0,1,0,8,8A8,8,0,0,0,256,384Z" style="fill:url(#linear-gradient)"/></svg>
